Hanif_Medium_2_5_grf.mot
version=1
nRows=31
nColumns=19
inDegrees=yes
endheader
time	right_ground_force_vx	right_ground_force_vy	right_ground_force_vz	right_ground_force_px	right_ground_force_py	right_ground_force_pz	right_ground_torque_x	right_ground_torque_y	right_ground_torque_z	left_ground_force_vx	left_ground_force_vy	left_ground_force_vz	left_ground_force_px	left_ground_force_py	left_ground_force_pz	left_ground_torque_x	left_ground_torque_y	left_ground_torque_z
5.975000	9.865050	364.102000	43.435000	0.233379	0.000000	-1.435850	-25.506800	0.488916	12.302000	-9.056720	379.772000	-47.579700	0.249208	0.000000	-0.981408	29.832800	0.712601	18.981000
5.980000	9.478180	360.308000	43.383400	0.233831	0.000000	-1.436450	-25.029500	0.384850	12.333300	-9.148190	375.827000	-47.324900	0.249382	0.000000	-0.980064	29.017000	0.810932	18.840000
5.985000	8.934840	358.235000	43.477400	0.233984	0.000000	-1.435910	-25.080400	0.321839	12.316700	-9.132760	372.402000	-47.164800	0.249533	0.000000	-0.980631	28.964800	0.801233	18.730400
5.990000	8.024770	356.377000	44.045600	0.234455	0.000000	-1.436250	-24.833600	0.158125	12.416700	-9.351340	369.482000	-47.356100	0.249493	0.000000	-0.980889	28.836000	0.804399	18.577300
5.995000	7.493560	354.267000	43.985700	0.235249	0.000000	-1.435680	-24.890300	0.071195	12.623500	-10.836900	366.407000	-47.742600	0.250174	0.000000	-0.981801	28.945900	0.797774	18.703700
6.000000	7.190150	351.456000	44.430000	0.235524	0.000000	-1.434520	-25.102500	-0.039021	12.614700	-11.447900	364.797000	-47.455800	0.251011	0.000000	-0.981180	28.597500	0.842507	18.930300
6.005000	6.542140	351.064000	44.214700	0.236122	0.000000	-1.435260	-24.812100	-0.023608	12.821000	-11.507600	360.329000	-46.415900	0.251872	0.000000	-0.981917	28.515300	0.835419	19.010600
6.010000	6.103830	347.766000	44.968200	0.236838	0.000000	-1.434960	-24.686200	-0.068579	12.960100	-12.307400	355.518000	-46.217400	0.251576	0.000000	-0.981806	28.107500	0.733314	18.676900
6.015000	5.971820	344.859000	44.122400	0.236744	0.000000	-1.435680	-24.232800	-0.114127	12.810400	-12.124600	353.537000	-46.107300	0.251904	0.000000	-0.982052	28.038200	0.712451	18.694100
6.020000	6.411810	342.519000	43.835600	0.237048	0.000000	-1.434370	-24.516900	-0.184630	12.815100	-11.494800	350.377000	-46.059600	0.251551	0.000000	-0.981555	27.611700	0.596217	18.414700
6.025000	5.838740	339.310000	43.925000	0.237718	0.000000	-1.434180	-24.348700	-0.076688	12.948500	-10.733900	345.615000	-45.957600	0.251072	0.000000	-0.982392	27.519100	0.619664	17.994100
6.030000	5.874900	337.112000	43.473700	0.238210	0.000000	-1.433970	-24.262700	-0.217119	13.012800	-9.717840	341.224000	-46.015800	0.251233	0.000000	-0.980946	26.669600	0.566152	17.825500
6.035000	5.845700	333.410000	43.283600	0.238758	0.000000	-1.433540	-24.139600	-0.077567	13.075000	-8.334370	336.294000	-45.619200	0.249952	0.000000	-0.981571	26.484400	0.450495	17.135300
6.040000	5.023230	328.972000	43.380600	0.239533	0.000000	-1.433190	-23.935100	-0.145961	13.163800	-7.308190	329.072000	-45.786700	0.249523	0.000000	-0.981233	25.798600	0.394706	16.636900
6.045000	5.139070	325.800000	43.272100	0.239804	0.000000	-1.433360	-23.648100	-0.215791	13.118800	-6.386700	323.602000	-46.581100	0.248211	0.000000	-0.980646	25.176400	0.211409	15.965300
6.050000	3.683680	320.027000	43.422600	0.239841	0.000000	-1.432680	-23.449900	-0.247736	12.914800	-5.185850	316.058000	-46.526900	0.249274	0.000000	-0.980348	24.487400	0.199231	15.940800
6.055000	3.678070	315.992000	43.410500	0.240027	0.000000	-1.432370	-23.253400	-0.315295	12.806400	-4.431460	310.500000	-46.848800	0.249721	0.000000	-0.981472	24.401600	0.142901	15.820800
6.060000	2.849490	310.373000	43.228400	0.240625	0.000000	-1.432280	-22.870100	-0.263082	12.787500	-3.920840	305.156000	-46.227200	0.249941	0.000000	-0.982338	24.241800	0.185835	15.608600
6.065000	2.526630	305.912000	43.089800	0.241006	0.000000	-1.433530	-22.157700	-0.329210	12.721000	-4.747970	298.361000	-45.115400	0.251182	0.000000	-0.981538	23.472800	0.168149	15.650900
6.070000	2.571850	300.376000	42.856600	0.241211	0.000000	-1.432540	-22.054500	-0.329958	12.556900	-5.142800	292.937000	-44.669800	0.251713	0.000000	-0.982421	23.308100	0.283550	15.519800
6.075000	2.764630	293.717000	42.176400	0.241352	0.000000	-1.432190	-21.667600	-0.369567	12.313800	-5.388990	284.701000	-44.165900	0.252345	0.000000	-0.982943	22.805200	0.351014	15.273600
6.080000	2.954470	290.348000	42.559900	0.241560	0.000000	-1.432470	-21.337700	-0.276027	12.253800	-5.743450	281.596000	-43.548900	0.252847	0.000000	-0.982453	22.423700	0.308557	15.260200
6.085000	2.250330	285.952000	41.946800	0.241723	0.000000	-1.433070	-20.846300	-0.376267	12.108300	-5.786830	273.564000	-42.873900	0.253361	0.000000	-0.982013	21.667200	0.289476	14.982400
6.090000	2.560780	279.761000	41.235700	0.242337	0.000000	-1.431090	-20.944600	-0.309197	12.027800	-4.919650	270.707000	-42.868500	0.252672	0.000000	-0.983128	21.735900	0.191752	14.648300
6.095000	2.380820	274.610000	40.829300	0.242317	0.000000	-1.430760	-20.650400	-0.401672	11.791200	-4.821090	263.891000	-42.595600	0.252248	0.000000	-0.982518	21.028700	0.162477	14.182600
6.100000	2.981600	272.855000	40.960000	0.242819	0.000000	-1.431820	-20.226800	-0.353296	11.860400	-3.628800	256.865000	-42.987200	0.252387	0.000000	-0.983299	20.659100	0.201891	13.848400
6.105000	2.946560	266.677000	40.836200	0.243308	0.000000	-1.431420	-19.875500	-0.420068	11.722200	-2.646290	251.935000	-42.708400	0.251416	0.000000	-0.982382	20.023600	0.078089	13.348100
6.110000	3.101550	264.494000	40.576700	0.244013	0.000000	-1.431420	-19.713200	-0.553725	11.794600	-1.719810	247.056000	-42.387400	0.251748	0.000000	-0.981232	19.344300	-0.048705	13.192300
6.115000	3.192100	261.097000	41.126400	0.245119	0.000000	-1.429340	-20.003900	-0.541957	11.948900	-1.263120	240.309000	-41.774600	0.252461	0.000000	-0.982138	19.029600	0.032228	12.999600
6.120000	3.197280	258.839000	41.247000	0.244459	0.000000	-1.430560	-19.514200	-0.592243	11.667200	-1.017620	234.001000	-41.395200	0.253059	0.000000	-0.982954	18.719500	-0.032316	12.824500
6.125000	2.861730	257.433000	41.157700	0.245807	0.000000	-1.429490	-19.684200	-0.582073	11.965700	-1.468110	231.174000	-40.584300	0.253549	0.000000	-0.981935	18.261800	0.052630	12.771900
